<svg width="26" height="26" viewBox="0 0 26 26" fill="none" xmlns="http://www.w3.org/2000/svg">
<path d="M11.7384 12.8055C11.7384 13.3948 12.2162 13.8726 12.8056 13.8726C13.3949 13.8726 13.8727 13.3948 13.8727 12.8055C13.8727 12.2161 13.3949 11.7383 12.8056 11.7383C12.2162 11.7383 11.7384 12.2161 11.7384 12.8055Z" stroke="#091626" stroke-width="2.01568" stroke-linecap="round" stroke-linejoin="round"/>
<path d="M11.7384 20.2753C11.7384 20.8647 12.2162 21.3424 12.8056 21.3424C13.3949 21.3424 13.8727 20.8647 13.8727 20.2753C13.8727 19.686 13.3949 19.2082 12.8056 19.2082C12.2162 19.2082 11.7384 19.686 11.7384 20.2753Z" stroke="#091626" stroke-width="2.01568" stroke-linecap="round" stroke-linejoin="round"/>
<path d="M11.7384 5.33562C11.7384 5.92497 12.2162 6.40274 12.8056 6.40274C13.3949 6.40274 13.8727 5.92497 13.8727 5.33562C13.8727 4.74626 13.3949 4.26849 12.8056 4.26849C12.2162 4.26849 11.7384 4.74626 11.7384 5.33562Z" stroke="#091626" stroke-width="2.01568" stroke-linecap="round" stroke-linejoin="round"/>
</svg>
