<svg width="24" height="24" viewBox="0 0 24 24" fill="none" xmlns="http://www.w3.org/2000/svg">
<path d="M21.4072 19.7527L16.9968 15.3422C18.0586 13.9286 18.6318 12.208 18.6299 10.44C18.6299 5.92406 14.9558 2.25 10.4399 2.25C5.92394 2.25 2.24988 5.92406 2.24988 10.44C2.24988 14.9559 5.92394 18.63 10.4399 18.63C12.2079 18.6319 13.9285 18.0587 15.3421 16.9969L19.7525 21.4073C19.9758 21.6069 20.267 21.7135 20.5663 21.7051C20.8657 21.6967 21.1504 21.574 21.3622 21.3623C21.5739 21.1506 21.6966 20.8658 21.7049 20.5664C21.7133 20.2671 21.6068 19.9759 21.4072 19.7527V19.7527ZM4.58988 10.44C4.58988 9.28298 4.93297 8.15194 5.57578 7.18991C6.21859 6.22789 7.13223 5.47808 8.20118 5.03531C9.27013 4.59253 10.4464 4.47668 11.5812 4.70241C12.7159 4.92813 13.7583 5.48529 14.5765 6.30343C15.3946 7.12156 15.9517 8.16393 16.1775 9.29872C16.4032 10.4335 16.2873 11.6098 15.8446 12.6787C15.4018 13.7476 14.652 14.6613 13.69 15.3041C12.7279 15.9469 11.5969 16.29 10.4399 16.29C8.88893 16.2881 7.40204 15.6712 6.30536 14.5745C5.20867 13.4778 4.59174 11.9909 4.58988 10.44V10.44Z" fill="#758393"/>
</svg>
